<svg width="19" height="16" viewBox="0 0 19 16" fill="none" xmlns="http://www.w3.org/2000/svg">
<path fill-rule="evenodd" clip-rule="evenodd" d="M5.93158 15.1411C7.36514 15.1541 8.78692 14.8813 10.1139 14.3386C11.4408 13.796 12.6464 12.9944 13.6601 11.9807C14.6738 10.967 15.4754 9.76141 16.0181 8.43445C16.5607 7.10749 16.8335 5.68571 16.8206 4.25214V3.73314C17.5452 3.18163 18.1757 2.51634 18.6876 1.76314C17.9921 2.0655 17.2598 2.27464 16.5096 2.38514C17.2808 1.90083 17.8655 1.16988 18.1686 0.311143C17.4193 0.728233 16.617 1.04208 15.7836 1.24414C15.4328 0.848843 15.0014 0.53328 14.5184 0.318698C14.0354 0.104116 13.5121 -0.00450652 12.9836 0.000143214C11.971 0.0163722 11.0044 0.425837 10.2884 1.14193C9.57227 1.85802 9.1628 2.82457 9.14658 3.83714C9.12173 4.11775 9.15579 4.40046 9.24658 4.66714C7.72067 4.59343 6.22813 4.19449 4.86894 3.49704C3.50975 2.7996 2.31529 1.81975 1.36558 0.623143C1.02421 1.22351 0.845324 1.90252 0.846577 2.59314C0.860265 3.21994 1.01682 3.83534 1.30431 4.39248C1.59181 4.94962 2.00266 5.4338 2.50558 5.80814C1.88217 5.79527 1.27352 5.6161 0.742577 5.28914C0.741565 6.17728 1.05249 7.03757 1.62108 7.71984C2.18967 8.40211 2.97981 8.86303 3.85358 9.02214C3.51569 9.1119 3.16539 9.14568 2.81658 9.12214C2.57025 9.13997 2.32291 9.1059 2.09058 9.02214C2.34362 9.79142 2.82819 10.4637 3.47797 10.947C4.12776 11.4303 4.91103 11.7011 5.72058 11.7221C4.35745 12.7868 2.68017 13.3702 0.950577 13.3811C0.636197 13.3992 0.320989 13.3654 0.0175781 13.2811C1.73361 14.5274 3.80801 15.1826 5.92858 15.1481" fill="white"/>
</svg>
